<?xml version="1.0" standalone="no"?>
<!DOCTYPE svg PUBLIC "-//W3C//DTD SVG 20010904//EN"
 "http://www.w3.org/TR/2001/REC-SVG-20010904/DTD/svg10.dtd">
<svg version="1.0" xmlns="http://www.w3.org/2000/svg"
 width="430.000000pt" height="430.000000pt" viewBox="0 0 430.000000 430.000000"
 preserveAspectRatio="xMidYMid meet">
<metadata>
Created by potrace 1.11, written by Peter Selinger 2001-2013
</metadata>
<g transform="translate(0.000000,430.000000) scale(0.100000,-0.100000)"
fill="#000000" stroke="none">
<path d="M1970 4272 c-22 -8 -41 -29 -45 -52 -2 -11 -7 -26 -12 -33 -4 -6 -9
-19 -10 -28 -1 -9 -7 -29 -13 -45 -6 -16 -11 -30 -11 -31 0 -2 -8 -23 -19 -48
-11 -25 -17 -45 -15 -45 2 0 -3 -16 -11 -35 -8 -19 -12 -35 -9 -35 3 0 -1 -13
-10 -30 -9 -16 -13 -30 -10 -30 3 0 0 -10 -7 -22 -7 -13 -14 -34 -16 -48 -2
-13 -9 -28 -15 -32 -7 -4 -9 -8 -5 -8 4 0 0 -19 -8 -42 -9 -24 -18 -54 -20
-67 -3 -13 -10 -34 -16 -45 -6 -12 -11 -22 -10 -23 4 -6 -22 -93 -28 -93 -3 0
-6 -12 -7 -26 0 -15 -6 -36 -11 -48 -9 -16 -70 -210 -98 -308 -3 -9 -46 -49
-96 -89 -50 -40 -105 -88 -122 -107 -17 -19 -41 -47 -54 -61 -13 -14 -35 -27
-50 -28 -44 -6 -586 -113 -602 -120 -8 -3 -18 -5 -23 -5 -4 1 -26 -3 -50 -8
-23 -6 -53 -13 -67 -15 -32 -6 -64 -13 -70 -15 -3 -1 -9 -2 -13 -1 -4 1 -34
-5 -65 -13 -31 -8 -68 -17 -82 -20 -14 -2 -63 -14 -110 -26 -47 -12 -91 -22
-97 -22 -19 -2 -40 -30 -47 -64 -6 -25 0 -39 31 -81 21 -29 49 -58 63 -67 14
-8 43 -32 65 -51 22 -20 59 -50 82 -67 24 -17 43 -35 43 -40 0 -4 4 -8 10 -8
9 0 35 -19 65 -47 8 -7 18 -13 23 -13 6 0 12 -3 14 -7 1 -5 22 -21 45 -37 24
-16 43 -33 43 -38 0 -5 5 -6 10 -3 6 3 10 1 10 -4 0 -6 4 -10 9 -9 5 2 23 -9
40 -25 17 -15 31 -24 31 -20 0 4 7 -2 15 -13 8 -10 15 -15 15 -10 0 5 8 -1 19
-12 10 -12 22 -22 26 -22 8 0 91 -57 119 -82 11 -10 26 -18 33 -18 7 0 13 -4
13 -8 0 -5 12 -14 26 -21 17 -7 24 -17 20 -27 -3 -8 -2 -13 3 -10 11 7 68 -21
78 -38 5 -7 20 -21 35 -30 17 -11 38 -46 63 -104 21 -48 57 -126 82 -173 l45
-87 -12 -108 c-6 -60 -13 -129 -16 -154 -2 -25 -6 -61 -9 -80 -3 -19 -7 -62
-10 -95 -3 -33 -8 -73 -10 -90 -2 -16 -9 -77 -15 -135 -6 -58 -13 -123 -16
-145 -10 -93 -13 -114 -19 -190 -4 -44 -9 -83 -11 -86 -2 -4 -4 -40 -5 -80 -1
-59 3 -84 22 -122 l23 -47 79 0 c49 0 76 4 72 10 -3 6 1 7 9 4 9 -3 16 -2 16
2 0 5 27 25 60 43 33 19 60 39 60 43 0 4 5 8 10 8 12 0 94 52 98 63 2 4 10 7
18 7 8 0 14 5 14 10 0 6 7 10 15 10 8 0 15 4 15 8 0 5 15 15 33 24 17 8 54 32
81 52 26 21 45 32 41 24 -3 -7 3 -3 14 10 11 13 21 22 23 20 4 -3 132 84 136
94 2 4 10 8 17 8 7 0 15 3 17 8 2 4 29 24 60 45 31 20 64 44 72 53 9 8 16 12
16 8 0 -4 9 2 20 14 12 12 25 22 30 22 4 0 31 15 60 34 47 31 56 34 138 34
100 1 148 6 247 22 77 14 133 14 150 1 5 -5 21 -12 34 -16 13 -4 39 -14 58
-21 18 -8 35 -14 38 -15 2 0 22 -7 42 -16 54 -22 77 -31 83 -30 3 0 16 -6 30
-13 14 -8 31 -13 38 -12 6 2 12 -2 12 -8 0 -5 3 -9 8 -8 4 1 24 -6 46 -15 21
-9 40 -17 43 -17 4 0 133 -53 203 -83 14 -5 30 -11 35 -13 6 -1 55 -21 110
-44 183 -75 282 -99 300 -70 4 6 11 8 16 5 5 -4 10 1 10 9 4 43 2 85 -5 121
-12 58 -93 324 -133 435 -34 94 -39 108 -42 122 -1 4 -11 29 -22 55 -12 27
-36 89 -54 138 -18 50 -50 134 -70 188 -20 54 -38 104 -39 110 -2 7 -6 19 -9
27 -26 71 -27 87 -4 175 9 33 18 83 22 110 15 128 20 140 74 196 42 44 98 106
161 180 25 29 61 69 80 90 19 21 60 66 90 100 30 34 67 75 83 91 15 16 27 31
27 34 0 3 10 15 23 27 13 12 54 58 92 102 74 86 117 134 152 170 12 13 19 26
16 29 -4 3 -1 6 5 6 8 0 12 24 12 71 0 66 -2 74 -28 95 -32 29 40 26 -724 30
l-596 3 -39 25 c-21 14 -43 29 -49 33 -25 19 -52 34 -94 55 -25 12 -48 27 -52
32 -5 6 -8 7 -8 1 0 -13 -20 18 -62 95 -19 36 -47 85 -61 110 -15 25 -43 74
-63 110 -21 36 -51 88 -68 115 -18 28 -41 68 -51 90 -11 22 -23 42 -27 43 -5
2 -8 8 -8 13 0 5 -12 28 -27 52 -15 23 -42 71 -60 106 -18 36 -36 67 -40 70
-5 3 -19 28 -33 55 -60 119 -102 184 -137 213 -40 31 -78 45 -103 35z"/>
</g>
</svg>
